999
OREPRO 3D DXF EXPORT
0
SECTION
2
TABLES
0
TABLE
2
LAYER
0
LAYER
2
0
70
64
62
1
6
CONTINUOUS
0
ENDTAB
0
ENDSEC
0
SECTION
2
ENTITIES
0
POLYLINE
66
1
8
0
10
0
20
0
30
0
39
0
70
9
0
VERTEX
8
0
70
0
10
59346.08466666667
20
213684.056
30
504
0
VERTEX
8
0
70
0
10
59345.80233333333
20
213686.0253333333
30
504
0
VERTEX
8
0
70
0
10
59345.685
20
213687.938
30
504
0
VERTEX
8
0
70
0
10
59345.46766666667
20
213691.504
30
504
0
VERTEX
8
0
70
0
10
59345.44833333333
20
213697.2133333333
30
504
0
VERTEX
8
0
70
0
10
59345.44029635316
20
213700.0000000021
30
504
0
VERTEX
8
0
70
0
10
59360
20
213700
30
504
0
VERTEX
8
0
70
0
10
59359.90548657279
20
213689.4903780676
30
504
0
VERTEX
8
0
70
0
10
59352.5
20
213682.5
30
504
0
VERTEX
8
0
70
0
10
59346.48135267045
20
213681.2962705286
30
504
0
VERTEX
8
0
70
0
10
59346.08466666667
20
213684.056
30
504
0
SEQEND
0
ENDSEC
0
EOF